<?xml version="1.0" standalone="no"?>
<!DOCTYPE svg PUBLIC "-//W3C//DTD SVG 20010904//EN"
 "http://www.w3.org/TR/2001/REC-SVG-20010904/DTD/svg10.dtd">
<svg version="1.0" xmlns="http://www.w3.org/2000/svg"
 width="500.000000pt" height="500.000000pt" viewBox="0 0 500.000000 500.000000"
 preserveAspectRatio="xMidYMid meet">

<g transform="translate(0.000000,500.000000) scale(0.100000,-0.100000)"
fill="#000000" stroke="none">
<path d="M1750 4984 c-14 -2 -56 -9 -95 -15 -140 -21 -314 -76 -530 -167 -161
-68 -367 -216 -539 -388 -257 -257 -392 -487 -507 -861 -55 -183 -64 -254 -64
-538 0 -246 2 -267 27 -383 33 -147 72 -266 127 -389 23 -50 41 -97 41 -105 0
-24 143 -245 223 -343 90 -110 309 -335 327 -335 7 0 33 -15 59 -34 66 -48
235 -153 302 -187 67 -33 233 -97 334 -127 172 -51 223 -57 525 -57 273 0 290
2 400 27 63 15 153 39 200 53 155 49 455 203 535 275 17 15 47 37 69 49 37 21
39 21 60 4 11 -10 339 -336 728 -725 652 -650 712 -708 758 -723 155 -52 307
100 255 255 -15 46 -73 106 -723 758 -389 389 -715 717 -725 729 -21 24 -25
16 99 193 61 87 196 364 229 470 14 47 38 137 53 200 26 110 27 127 27 400 0
261 -2 294 -23 390 -59 267 -163 504 -324 735 -27 39 -62 91 -79 117 -32 50
-203 214 -334 322 -83 67 -300 206 -324 206 -7 0 -54 18 -104 41 -119 53 -238
93 -378 125 -103 24 -137 26 -359 29 -135 2 -256 2 -270 -1z m440 -415 c313
-41 651 -204 870 -421 140 -138 256 -297 327 -448 119 -256 154 -411 154 -686
0 -168 -7 -233 -42 -369 -66 -260 -156 -422 -390 -708 -17 -21 -50 -53 -73
-70 -24 -18 -80 -61 -127 -96 -213 -161 -434 -256 -697 -301 -82 -14 -367 -14
-462 0 -271 41 -526 155 -744 332 -185 151 -301 289 -397 474 -136 260 -190
471 -190 738 -1 212 33 392 106 571 71 174 142 307 196 368 155 174 152 171
326 326 61 54 194 125 368 196 240 98 500 129 775 94z"/>
</g>
</svg>
